P1
# This is the bitmap of a letter rotated 90 degrees clockwise
10 6
0 0 0 0 0 0 0 0 0 0
0 0 0 0 0 0 0 0 1 1
0 0 0 0 0 0 1 0 1 1
0 0 0 0 0 0 1 1 1 1
0 1 1 1 1 1 1 1 1 1
0 0 0 0 0 1 1 0 0 0
